<svg height="512" viewBox="0 0 512 512" width="512" xmlns="http://www.w3.org/2000/svg"><g><g><circle cx="384" cy="128" fill="#fad6c6" r="104"/><circle cx="432" cy="168" fill="#f78663" r="16"/><path d="m448 120a8 8 0 0 1 -8-8v-8a8 8 0 0 1 16 0v8a8 8 0 0 1 -8 8z" fill="#683b11"/><path d="m468.91 155.6c-.448 0-.9-.01-1.345-.031a28.068 28.068 0 0 1 -19.5-8.852 8 8 0 0 1 11.847-10.753 12.85 12.85 0 0 0 17.048.767 8 8 0 0 1 10.833 11.776 27.936 27.936 0 0 1 -18.883 7.093z" fill="#f99c78"/><g><path d="m339.146 183.366a101.017 101.017 0 0 0 8.324 7.755 154.236 154.236 0 0 0 56.021-42.5c-4.148-3.25-7.191-8.181-7.266-13.45s3.28-10.659 8.346-12.106 11.132.425 11.8 5.651a152.61 152.61 0 0 0 28.193-85.268 104 104 0 0 0 -134 158.186 136.33 136.33 0 0 0 36.908-10.517 101.017 101.017 0 0 1 -8.326-7.751z" fill="#5d5f5d"/><path d="m407.37 215.145a105.016 105.016 0 0 1 -59.9-24.024 136.33 136.33 0 0 1 -36.908 10.517 103.991 103.991 0 0 0 138.368 7.6 104.2 104.2 0 0 1 -41.56 5.907z" fill="#eaaa94"/></g><g><path d="m378.358 73.925c19.336-12.1 42.428-20.466 59.066-35.157a103.342 103.342 0 0 0 -45.51-14.46 34.278 34.278 0 0 1 -8.859 15.117c-7.383 7.449-17.032 12.115-25.846 17.8-42.828 27.623-65.22 83.375-53.924 132.975.756-1.246 1.506-2.5 2.285-3.724 2.09-3.307 4.286-6.544 6.534-9.744 6.159-41.532 30.551-80.468 66.254-102.807z" fill="#f29b3b"/><path d="m357.209 57.225c8.814-5.685 18.463-10.351 25.846-17.8a34.278 34.278 0 0 0 8.859-15.117c-2.614-.197-5.25-.308-7.914-.308a104 104 0 0 0 -81.888 168.117c.383-.645.785-1.273 1.173-1.913-11.296-49.604 11.096-105.356 53.924-132.979z" fill="#f7cf61"/><path d="m437.424 38.768c-16.638 14.691-39.73 23.059-59.066 35.157-35.7 22.339-60.1 61.273-66.254 102.811a254.137 254.137 0 0 1 83.106-74.906c22.17-12.471 51.491-23.122 77.245-28.54a104.538 104.538 0 0 0 -35.031-34.522z" fill="#f98800"/></g><path d="m352 224c3.831-34.056 6.679-62.909 18.857-94.942 6.26-.963 12.708-1.993 18.106-5.306s9.532-9.53 8.44-15.769-6.017-13.883-11.273-10.351c5.71-3.955 11.653-8.171 14.746-14.39s2.148-15.037-3.874-18.5c-6.783-3.9-15.18.768-21.3 5.649-41.153 32.847-67.641 77.109-71.702 129.609-1.055 13.643-4.423 24.767-9.939 37.29-8.568-2.242-19.056 3.544-25.238 9.886a25.727 25.727 0 0 0 -6.168 24.6c-22.583 19.388-15.507 8.827-38.091 28.215-11.061 9.5-15.379 25.983-22.335 38.795-1.767 3.255-3.507 7.393-1.38 10.424 2.429 3.46 7.776 2.546 11.623.794a53.466 53.466 0 0 0 27.6-29.621c31.092-17.752 23.928-8.383 55.928-32.383 0 0 51.061-20.088 56-64z" fill="#fad6c6"/><path d="m352.346 142.413c-5.187 8.638-6.7 18.9-8.881 28.736-13.119 59.273-68.434 94.128-110.151 138.231l-33.333 35.238a6.064 6.064 0 0 0 .868 4.588c2.429 3.46 7.776 2.546 11.623.794a53.466 53.466 0 0 0 27.6-29.621c31.092-17.748 23.928-8.379 55.928-32.379 0 0 51.061-20.088 56-64 3.824-34 6.671-62.806 18.8-94.771-7.475 1.022-14.444 6.508-18.454 13.184z" fill="#eaaa94"/><path d="m444.94 43.72q13.485-8.355 26.98-16.71c2.68-1.66 5.48-3.36 8.61-3.74s6.7.98 7.88 3.91c1.46 3.64-1.24 7.51-3.77 10.51q-10.2 12.06-20.4 24.14z" fill="#eaaa94"/><path d="m294.061 237.29c-8.568-2.242-19.056 3.544-25.238 9.886a25.741 25.741 0 0 0 -6.334 23.933c7.776-4.46 17.437-6.961 24.511-3.109 7.533 4.1 12 15 9 20a116.322 116.322 0 0 0 25.774-15.244c-10.98-11.519-16.633-24.106-27.647-35.619-.022.051-.043.102-.066.153z" fill="#40c6f3"/><path d="m24 392h184v32h-184z" fill="#fbe2bc"/><path d="m136 424-64 64h-48v-64z" fill="#c1e3f4"/><path d="m479 111h8.5a8.5 8.5 0 0 1 8.5 8.5 8.5 8.5 0 0 1 -8.5 8.5h-8.5a0 0 0 0 1 0 0v-17a0 0 0 0 1 0 0z" fill="#fad6c6"/><path d="m24 424h112l-24 24h-88z" fill="#aedef8"/></g><g><path d="m456 112v-8a8 8 0 0 0 -16 0v8a8 8 0 0 0 16 0z"/><path d="m208 384h-184a8 8 0 0 0 -8 8v96a8 8 0 0 0 8 8h48a8 8 0 0 0 5.657-2.343l61.657-61.657h68.686a8 8 0 0 0 8-8v-32a8 8 0 0 0 -8-8zm-139.314 96h-36.686v-48h84.686zm131.314-64h-168v-16h168z"/><path d="m496 96h-4.666a111.187 111.187 0 0 0 -11.764-26.422c-.063-.1-.128-.2-.2-.3-1.509-2.454-3.139-4.861-4.854-7.214q8.115-9.606 16.236-19.212c2.105-2.5 8.51-10.092 5.075-18.658-2.442-6.059-9.117-9.71-16.268-8.862-4.949.6-8.941 3.075-11.857 4.881l-22.545 13.962a112 112 0 0 0 -173.157 93.825 110.9 110.9 0 0 0 23.814 69.056c.13.165.25.311.378.472-.054.619-.12 1.234-.168 1.855a95.312 95.312 0 0 1 -7.085 29.457c-9.653.459-19.448 6.19-25.844 12.751a33.8 33.8 0 0 0 -9.179 27.1c-8 6.673-11.055 8.412-14.265 10.239-4.14 2.357-8.422 4.8-20.3 14.989-9.09 7.8-13.921 18.729-18.594 29.293-1.858 4.2-3.612 8.166-5.561 11.755-1.523 2.806-6.157 11.342-.9 18.838a13.928 13.928 0 0 0 11.823 5.742 23.468 23.468 0 0 0 9.663-2.265 61.28 61.28 0 0 0 30.664-31.317 214.158 214.158 0 0 1 20.3-10.215c8.16-3.632 13.589-6.048 33.243-20.744a126.92 126.92 0 0 0 27.095-16.245c15.367-12.07 25.693-26.391 30.385-41.927a112.007 112.007 0 0 0 137.381-124.834h1.15a8 8 0 0 0 0-16zm-19.867-62.189c.851-.528 1.755-1.087 2.622-1.554-.072.087-.146.176-.223.267q-7.246 8.568-14.492 17.149-2.574-2.629-5.31-5.084zm-188.133 94.189a96.005 96.005 0 0 1 152.253-77.8l.029.022.042.031a96.249 96.249 0 0 1 17.743 16.663c.4.48.776.974 1.163 1.462a253.559 253.559 0 0 0 -50.86 17.682c4.215-9.3 2.667-22.478-7.38-28.252-5.924-3.405-15.985-5.072-30.273 6.331-37.484 29.915-61.678 67.556-70.965 109.952a95.06 95.06 0 0 1 -11.752-46.091zm-27.754 173.13a236.16 236.16 0 0 0 -24.136 12.3 7.988 7.988 0 0 0 -3.53 4.152 45.757 45.757 0 0 1 -23.372 25.118c.017-.032.034-.064.052-.1 2.258-4.16 4.227-8.612 6.131-12.918 4.135-9.349 8.041-18.179 14.384-23.624 10.707-9.193 14.148-11.152 17.792-13.226 4.141-2.356 8.423-4.794 20.3-14.99a7.961 7.961 0 0 0 1.9-2.445c2.563-2.186 6.635-2.845 9.39-1.344a8.226 8.226 0 0 1 3.688 5.016 8.092 8.092 0 0 1 -.54 6.184 7.963 7.963 0 0 0 -1.064 3.643c-10.898 7.737-15.007 9.569-20.995 12.234zm38.654-23.315a25.45 25.45 0 0 0 -.653-3.064 24.172 24.172 0 0 0 -11.433-14.751 23.766 23.766 0 0 0 -15.553-2.311 16.7 16.7 0 0 1 3.29-4.931c3.553-3.645 8.891-6.935 13.429-7.764a171.74 171.74 0 0 1 11.6 14.565c2.96 4.011 6 8.12 9.56 12.32a117.069 117.069 0 0 1 -10.24 5.936zm23-15.623c-3.431-3.989-6.375-7.975-9.442-12.13-3.02-4.093-6.124-8.286-9.775-12.574 5.517-13.155 8.327-24.348 9.3-36.871 3.728-48.2 27.491-91.069 68.722-123.972 5.411-4.321 10.132-6.226 12.318-4.965 1.767 1.015 2.126 5.127.7 8-2.255 4.532-7.506 8.168-12.138 11.376a8 8 0 0 0 6.463 14.348 11.988 11.988 0 0 1 1.483 3.959c.42 2.4-1.62 5.654-4.743 7.572-4.108 2.52-9.715 3.382-15.138 4.216a8 8 0 0 0 -6.262 5.065c-12.019 31.614-15.181 59.859-18.844 92.565l-.485 4.325c-1.89 16.719-11.665 29.715-22.159 39.086zm62.1-38.192a96.167 96.167 0 0 1 -23.619-2.945l.055-.494c3.37-30.093 6.3-56.282 16.314-84.356 5.3-.948 11.148-2.414 16.4-5.636 8.82-5.414 13.7-15.045 12.135-23.965-.059-.338-.133-.682-.208-1.027a238.491 238.491 0 0 1 63.566-22.877 95.794 95.794 0 0 1 11.357 45.3q0 3.564-.261 7.064a7.979 7.979 0 0 0 -2.783 1.665 12.85 12.85 0 0 1 -17.048-.767 8 8 0 0 0 -11.847 10.753 28.068 28.068 0 0 0 19.5 8.852c.45.021.9.031 1.345.031a29.491 29.491 0 0 0 7.316-.925 96.171 96.171 0 0 1 -92.222 69.327z"/></g></g></svg>