<svg height="512" viewBox="0 0 58 58" width="512" xmlns="http://www.w3.org/2000/svg"><g id="Page-1" fill="none" fill-rule="evenodd"><g id="002---Claustrophobia" fill-rule="nonzero"><path id="Shape" d="m15.6 54.748c-11.8860039-6.1943537-17.97854104-19.7271199-14.73629287-32.7323086 3.24224818-13.0051887 14.97448077-22.09416493 28.37727717-21.98391448 13.4027964.11025044 24.9839209 9.39100069 28.0117853 22.44776688 3.0278643 13.0567662-3.2864724 26.4874743-15.2727696 32.4854562z" fill="#35495e"/><circle id="Oval" cx="29" cy="29" fill="#2c3e50" r="24"/><g fill="#fdd7ad"><path id="Shape" d="m8.61 43.19s0-.02.01-.01c.56070064-.7695399.50115603-1.8276699-.14234059-2.5294455-.64349661-.7017755-1.69251301-.8526045-2.50765941-.3605545l-5 3c-.76594425.4645951-1.12952037 1.3818471-.88987579 2.2450329.23964457.8631858 1.02404728 1.4617267 1.91987579 1.4649671.36373803.0018572.72066393-.0986365 1.03-.29l5-3c.06712683-.0375105.13071974-.0810214.19-.13"/><path id="Shape" d="m16.859 56.865c-.5487556.7127487-1.5058272.971454-2.3389389.6322369-.8331117-.3392172-1.3372594-1.1928855-1.2320611-2.0862369l.681-5.791c.071563-.7195155.5259161-1.3443775 1.1883232-1.6342752s1.429708-.1996838 2.0068125.235947.8741371 1.1488355.7768643 1.8653282l-.68 5.791c-.0418223.3594171-.1808014.700642-.402.987z"/><path id="Shape" d="m11.32 46.11c.7490729-.6369108 1.8499885-.6348721 2.5966974.0048085.7467089.6396807.9176961 1.7272387.4033026 2.5651915l-3.03 4.97c-.1867665.3113673-.4569596.5642404-.78.73-.62082309.3308494-1.3704622.3080177-1.97-.06-.94172922-.5763325-1.24109863-1.8050876-.67-2.75l3-4.92"/><path id="Shape" d="m4.848 52.749c-.77581304-.0002908-1.48146846-.4492209-1.81048637-1.1518113-.32901791-.7025903-.22203406-1.5320734.27448637-2.1281887l5-6c.45729995-.5491172 1.17281309-.8125559 1.8770125-.6910811.7041995.1214748 1.2901006.609408 1.5370001 1.28.2468994.670592.1172874 1.4219639-.3400126 1.9710811l-5 6c-.38026554.4565416-.94383503.7203713-1.538.72z"/><path id="Shape" d="m49.782 43.58c.0592803.0489786.1228732.0924895.19.13l5 3c.3087589.1910026.664941.291482 1.028.29.8958285-.0032404 1.6802312-.6017813 1.9198758-1.4649671s-.1239316-1.7804378-.8898758-2.2450329l-5-3c-.8151464-.49205-1.8641628-.341221-2.5076594.3605545-.6434966.7017756-.7030412 1.7599056-.1423406 2.5294455.01-.01.01.01.01.01"/><path id="Shape" d="m41.142 56.865c.5487556.7127487 1.5058272.971454 2.3389389.6322369.8331117-.3392172 1.3372594-1.1928855 1.2320611-2.0862369l-.68-5.791c-.071563-.7195155-.5259161-1.3443775-1.1883232-1.6342752s-1.429708-.1996838-2.0068125.235947-.8741371 1.1488355-.7768643 1.8653282l.68 5.791c.0409841.3594568.1796713.700814.401.987z"/><path id="Shape" d="m47.132 46.65 3 4.92c.5710986.9449124.2717292 2.1736675-.67 2.75-.5995378.3680177-1.3491769.3908494-1.97.06-.3230404-.1657596-.5932335-.4186327-.78-.73l-3.03-4.97c-.5143935-.8379528-.3434063-1.9255108.4033026-2.5651915.7467089-.6396806 1.8476245-.6417193 2.5966974-.0048085"/><path id="Shape" d="m53.154 52.749c.7756323-.0006784 1.4809333-.4497545 1.8096989-1.1522636.3287657-.7025091.2217062-1.53176-.2746989-2.1277364l-5-6c-.4538503-.5604066-1.174246-.833093-1.8854249-.7136767s-1.3030015.6124414-1.5489226 1.2903489c-.245921.6779074-.107855 1.4357105.3613475 1.9833278l5 6c.3802655.4565416.943835.7203713 1.538.72z"/></g><path id="Shape" d="m40.7 55.53c-7.4523828 3.2932744-15.9476172 3.2932744-23.4 0l.18-1.53.51-.19 5.01-1.81h12l5.01 1.81.51.19z" fill="#2fa8cc"/><path id="Shape" d="m40.01 53.81c-7.0495952 2.9199804-14.9704048 2.9199804-22.02 0l5.01-1.81h12z" fill="#67b9cc"/><path id="Shape" d="m47.78 24h2.22c1.6568542 0 3 1.3431458 3 3v3c0 1.6568542-1.3431458 3-3 3h-42c-1.65685425 0-3-1.3431458-3-3v-3c0-1.6568542 1.34314575-3 3-3z" fill="#f9c795"/><path id="Shape" d="m51.85 18.37v.03c-.0653653 1.9461049-.367592 3.8769974-.9 5.75h-43.9c-.532408-1.8730026-.83463465-3.8038951-.9-5.75v-.03c-.09386296-2.6523738.09385363-5.3072228.56-7.92 5.5097441-6.62008991 13.6770522-10.4485607 22.29-10.4485607s16.7802559 3.82847079 22.29 10.4485607c.4661464 2.6127772.653863 5.2676262.56 7.92z" fill="#805333"/><path id="Shape" d="m51.85 18.37v.03c-.0653653 1.9461049-.367592 3.8769974-.9 5.75h-43.9c-.532408-1.8730026-.83463465-3.8038951-.9-5.75v-.03c.07563584-1.7004245.26270391-3.3940587.56-5.07 5.5097441-6.62008991 13.6770522-10.4485607 22.29-10.4485607s16.7802559 3.82847079 22.29 10.4485607c.2972961 1.6759413.4843642 3.3695755.56 5.07z" fill="#a56a43"/><path id="Shape" d="m34.97 46.06c-.23.49-1.83 4.08.03 5.94 0 0-1 2-6 2s-6-2-6-2c1.86-1.86.26-5.45.03-5.94z" fill="#f9c795"/><path id="Shape" d="m22.142 45.745c4.4189523 1.6730021 9.2970477 1.6730021 13.716 0 1.2137521-.4462486 2.3912494-.9855169 3.522-1.613 6.62-3.848 9.132-12.232 8.486-19.24-.037-.4-.25-3.888-.495-6.394-.1415377-1.4412682-1.2997136-2.5715871-2.744-2.678-3.817-.283-11.364-1.359-14.848-5.454-.1922619-.2318488-.4778049-.36601006-.779-.36601006s-.5867381.13416126-.779.36601006c-3.484 4.1-11.031 5.171-14.848 5.454-1.4449378.1062277-2.6032333 1.2379199-2.743 2.68-.246 2.506-.459 5.992-.5 6.394-.642 7.006 1.87 15.39 8.49 19.238 1.1307506.6274831 2.3082479 1.1667514 3.522 1.613z" fill="#fdd7ad"/><path id="Shape" d="m16 22.276c-.4408769.0005403-.8300902-.2877099-.9581268-.709586-.1280366-.421876.0353166-.8778265.4021268-1.122414 1.9626412-1.2742027 4.2206383-2.0208985 6.556-2.168.5522847 0 1 .4477153 1 1s-.4477153 1-1 1c-1.9394975.1464369-3.8114416.7762627-5.445 1.832-.1643469.1095861-.3574677.1680443-.555.168z" fill="#a56a43"/><path id="Shape" d="m27 35h4c2.209139 0 4 1.790861 4 4v1c0 1.1045695-.8954305 2-2 2h-8c-1.1045695 0-2-.8954305-2-2v-1c0-2.209139 1.790861-4 4-4z" fill="#802d40"/><path id="Shape" d="m22.006 29.378c1.675946-.3675428 2.9027894-1.8051005 3.0023262-3.5179856.0995369-1.7128851-.9525361-3.2828721-2.5746289-3.8420661-1.6220927-.559194-3.4181481.0289402-4.3952996 1.4392798-.9771516 1.4103396-.8968138 3.2985298.1966023 4.6207719z" fill="#ecf0f1"/><path id="Shape" d="m42 22.276c-.1967481-.0000537-.3891089-.0581446-.553-.167-1.6357078-1.0529579-3.5074865-1.6828405-5.447-1.833-.5522847 0-1-.4477153-1-1s.4477153-1 1-1c2.3350177.147271 4.5926498.89396 6.555 2.168.3666557.2444851.5300428.7001723.4022708 1.1219349s-.5165789.710164-.9572708.7100651z" fill="#a56a43"/><path id="Shape" d="m39.765 28.079c1.0877308-1.3196567 1.1655409-3.2015581.1904629-4.6065047-.9750779-1.4049467-2.7652954-1.9903772-4.3820813-1.4330126-1.616786.5573645-2.6659274 2.1216246-2.5680807 3.8289846.0978466 1.70736 1.3188238 3.1415225 2.9886991 3.5105327z" fill="#ecf0f1"/><path id="Shape" d="m31 32h-4c-.5522847 0-1-.4477153-1-1s.4477153-1 1-1h4c.5522847 0 1 .4477153 1 1s-.4477153 1-1 1z" fill="#f9c795"/><circle id="Oval" cx="22" cy="26" fill="#35495e" r="2"/><circle id="Oval" cx="36" cy="26" fill="#35495e" r="2"/><path id="Shape" d="m23 31.272c-.2653486.0007185-.5199469-.1047939-.707-.293-1.609535-1.539336-3.8734454-2.1881441-6.054-1.735-.3469049.086101-.7133926-.0194099-.9614107-.2767879-.2480181-.2573779-.3398868-.627521-.241-.971.0988868-.3434789.3735058-.6081111.7204107-.6942121 2.8614369-.6146019 5.8411899.233597 7.95 2.263.2859079.2859943.3714219.7160366.216678 1.0896546-.1547439.3736179-.5192821.6172591-.923678.6173454z" fill="#f9c795"/><path id="Shape" d="m35 31.272c-.4043959-.0000863-.7689341-.2437275-.923678-.6173454-.1547439-.373618-.0692299-.8036603.216678-1.0896546 2.1088101-2.029403 5.0885631-2.8776019 7.95-2.263.5362685.1331006.8631006.6757315.73 1.212s-.6757315.8631006-1.212.73c-2.180548-.4529661-4.4443763.1958185-6.054 1.735-.1870531.1882061-.4416514.2937185-.707.293z" fill="#f9c795"/><circle id="Oval" cx="21" cy="25" fill="#ecf0f1" r="1"/><circle id="Oval" cx="35" cy="25" fill="#ecf0f1" r="1"/><path id="Shape" d="m29 38c2.209139 0 4 1.790861 4 4h-8c0-2.209139 1.790861-4 4-4z" fill="#ff5364"/></g></g></svg>